Coordinates
version=1
nRows=30
nColumns=23
inDegrees=yes

Units are S.I. units (second, meters, Newtons, ...)
If the header above contains a line with 'inDegrees', this indicates whether rotational values are in degrees (yes) or radians (no).

endheader
time	pelvis_tilt	pelvis_list	pelvis_rotation	pelvis_tx	pelvis_ty	pelvis_tz	hip_flexion_r	hip_adduction_r	hip_rotation_r	knee_angle_r	knee_angle_r_beta	ankle_angle_r	subtalar_angle_r	mtp_angle_r	hip_flexion_l	hip_adduction_l	hip_rotation_l	knee_angle_l	knee_angle_l_beta	ankle_angle_l	subtalar_angle_l	mtp_angle_l
     22.50000000	      4.87324778	    -12.03413229	      2.02547094	      2.09745990	      1.06336006	      1.06841322	      2.24414939	     13.13279352	    -10.46114821	     40.11963518	      0.70021973	     26.99153733	      4.55857830	      0.00000000	     23.12036865	    -11.87971517	      7.82094686	     87.01971061	      1.51878046	      4.02234773	    -15.98214021	      0.00000000
     22.50666667	      4.72301036	    -11.41478772	      1.99716424	      2.09727448	      1.06721266	      1.06785568	      0.78031531	     12.54310295	    -10.19348374	     38.85575295	      0.67816082	     26.23699393	      4.96043468	      0.00000000	     24.05830976	    -11.08500532	      7.59395164	     85.39574804	      1.49043697	      4.50270906	    -15.96439138	      0.00000000
     22.51333333	      4.56638260	    -10.76363733	      1.99080181	      2.09733321	      1.07128656	      1.06720093	     -0.69577465	     11.91135129	     -9.96859767	     37.51696361	      0.65479454	     25.25471875	      5.26527557	      0.00000000	     24.88382788	    -10.26981982	      7.30637773	     83.54985415	      1.45822004	      4.97038455	    -15.97270537	      0.00000000
     22.52000000	      4.23054981	    -10.07918785	      1.99851218	      2.09750807	      1.07527209	      1.06649228	     -1.93545956	     11.22521507	     -9.82552991	     36.21445123	      0.63206141	     24.05993595	      5.52394897	      0.00000000	     25.81792852	     -9.42328766	      6.97991383	     81.52185696	      1.42282482	      5.45665242	    -15.93778343	      0.00000000
     22.52666667	      4.09327141	     -9.34408983	      2.04435281	      2.09797787	      1.07974861	      1.06567184	     -3.44346026	     10.50118583	     -9.68916233	     34.77088228	      0.60686638	     22.73873507	      5.72496260	      0.00000000	     26.37333276	     -8.54420821	      6.57751564	     79.22781399	      1.38278621	      5.86964329	    -15.98008476	      0.00000000
     22.53333333	      3.75016835	     -8.57684101	      2.13596368	      2.09857385	      1.08400792	      1.06481524	     -4.67032616	      9.74356361	     -9.64513580	     33.39117298	      0.58278591	     21.19391811	      5.80241464	      0.00000000	     27.05703119	     -7.59119911	      6.21133377	     76.75154517	      1.33956717	      6.31577668	    -15.94080495	      0.00000000
     22.54000000	      3.12619708	     -7.82542078	      2.20975354	      2.09925309	      1.08791999	      1.06394832	     -5.52072871	      8.95398185	     -9.75930797	     32.12004655	      0.56060057	     19.49046137	      5.85715628	      0.00000000	     27.96751397	     -6.66173642	      5.80964918	     74.13116774	      1.29383296	      6.79905975	    -15.75280513	      0.00000000
     22.54666667	      2.86839853	     -6.99172177	      2.39161180	      2.10011035	      1.09244714	      1.06300195	     -6.84229894	      8.19260266	     -9.71568324	     30.63480691	      0.53467825	     17.64304330	      5.73664681	      0.00000000	     28.31145411	     -5.65933086	      5.37733932	     71.22821549	      1.24316688	      7.17779812	    -15.65910166	      0.00000000
     22.55333333	      2.33901298	     -6.17821034	      2.59399083	      2.10102912	      1.09649537	      1.06201334	     -7.77516796	      7.40878342	     -9.87109162	     29.31124829	      0.51157779	     15.69220820	      5.57309380	      0.00000000	     28.87622934	     -4.66078802	      4.95471683	     68.19903665	      1.19029774	      7.62500039	    -15.33334704	      0.00000000
     22.56000000	      1.49473556	     -5.41545002	      2.79489293	      2.10193309	      1.10002278	      1.06099593	     -8.25032251	      6.62750284	    -10.18184950	     28.19082690	      0.49202275	     13.66527862	      5.56384726	      0.00000000	     29.71172424	     -3.68771331	      4.54832253	     65.05835156	      1.13548244	      8.07998795	    -14.75556703	      0.00000000
     22.56666667	      1.21993394	     -4.58380798	      3.07002647	      2.10300609	      1.10428100	      1.05996983	     -9.44030599	      5.89833128	    -10.31523583	     26.82548263	      0.46819300	     11.50380230	      5.18413062	      0.00000000	     29.72802315	     -2.67732878	      4.12744214	     61.62653591	      1.07558596	      8.48977565	    -14.07269187	      0.00000000
     22.57333333	      0.24396444	     -3.93109946	      3.31392516	      2.10390485	      1.10732867	      1.05887519	     -9.63105666	      5.23606100	    -10.67265074	     25.91526990	      0.45230679	      9.47298329	      5.22940128	      0.00000000	     30.50551331	     -1.76801256	      3.82645271	     58.20573640	      1.01588174	      8.88954896	    -13.11795458	      0.00000000
     22.58000000	      0.25041093	     -3.10249491	      3.62429748	      2.10518576	      1.11156664	      1.05786746	    -11.06403272	      4.54317645	    -10.89686446	     24.62947695	      0.42986547	      7.11922754	      4.68115829	      0.00000000	     29.98533506	     -0.88491418	      3.23898141	     54.49742195	      0.95115945	      9.36767898	    -11.62391161	      0.00000000
     22.58666667	     -0.52355372	     -2.43783152	      3.95210987	      2.10622896	      1.11435829	      1.05664764	    -11.34249964	      3.84193916	    -11.51890301	     23.96326289	      0.41823784	      4.97559308	      4.47119651	      0.00000000	     30.31648186	      0.03525483	      2.95482162	     50.83441869	      0.88722798	      9.74892968	    -10.09291670	      0.00000000
     22.59333333	     -0.52057352	     -1.77128011	      4.19174172	      2.10753501	      1.11796719	      1.05566216	    -12.57534258	      3.27893550	    -11.78229328	     23.02416116	      0.40184742	      2.85810818	      4.17642023	      0.00000000	     29.65446831	      0.70695412	      2.32991032	     47.04594535	      0.82110665	     10.31680001	     -7.79189971	      0.00000000
     22.60000000	     -0.71025809	     -1.19826314	      4.42698005	      2.10867425	      1.12090522	      1.05454365	    -13.38441485	      2.72283570	    -12.23115256	     22.49530914	      0.39261721	      0.80609271	      3.91358119	      0.00000000	     29.15643853	      1.38533201	      1.88938794	     43.27018967	      0.75520728	     10.79912693	     -5.42668412	      0.00000000
     22.60666667	     -0.75906695	     -0.68675700	      4.63587141	      2.10988459	      1.12362143	      1.05342849	    -14.25806787	      2.21729373	    -12.71703190	     22.12461019	      0.38614729	     -1.14985633	      3.63939825	      0.00000000	     28.44974046	      1.97171472	      1.43009583	     39.53045276	      0.68993656	     11.30238657	     -2.81412379	      0.00000000
     22.61333333	     -0.81595577	     -0.23407078	      4.82536880	      2.11097814	      1.12585950	      1.05221810	    -14.94577449	      1.70677011	    -13.30662569	     22.09772357	      0.38567803	     -2.92339524	      3.27619999	      0.00000000	     27.70142349	      2.57668062	      1.18674123	     35.84104693	      0.62554428	     11.73693831	     -0.38818855	      0.00000000
     22.62000000	     -0.49039407	      0.12670791	      4.92973847	      2.11218291	      1.12814020	      1.05124186	    -16.00752254	      1.34357191	    -13.73230440	     22.09556108	      0.38564029	     -4.57210009	      2.96279482	      0.00000000	     26.54418375	      2.93719599	      0.70874897	     32.34872167	      0.56459170	     12.30930399	      2.47939819	      0.00000000
     22.62666667	     -0.26741724	      0.44639212	      5.01429434	      2.11314963	      1.12975754	      1.05014902	    -16.72686167	      0.92417113	    -14.27483565	     22.55336855	      0.39363054	     -5.96367645	      2.45903679	      0.00000000	     25.47783006	      3.37454471	      0.57496538	     28.98618030	      0.50590428	     12.73239178	      4.69832143	      0.00000000
     22.63333333	     -0.00308535	      0.69184229	      5.09210206	      2.11404363	      1.13088857	      1.04906811	    -17.35404955	      0.53926059	    -14.88652106	     23.27199530	      0.40617294	     -7.14400219	      1.80391763	      0.00000000	     24.40804212	      3.73130987	      0.51182913	     25.90869960	      0.45219211	     13.13153815	      6.63173969	      0.00000000
     22.64000000	      0.40855624	      0.92889465	      5.16096023	      2.11487167	      1.13171076	      1.04801880	    -18.02541431	      0.15868138	    -15.48969692	     24.20978499	      0.42254046	     -8.12556851	      1.05521629	      0.00000000	     23.19772606	      4.06125997	      0.50293374	     23.09936522	      0.40315998	     13.50612335	      8.25881403	      0.00000000
     22.64666667	      0.75324871	      1.12327555	      5.22111946	      2.11554646	      1.13189339	      1.04698959	    -18.46274711	     -0.24482105	    -16.14222122	     25.47350884	      0.44459660	     -8.87641139	      0.03493071	      0.00000000	     22.14645184	      4.34393297	      0.53932814	     20.69173432	      0.36113889	     13.79437219	      9.37873717	      0.00000000
     22.65333333	      1.10286405	      1.31382948	      5.30042095	      2.11609592	      1.13157567	      1.04596635	    -18.78728565	     -0.67283950	    -16.82097180	     26.98001427	      0.47089008	     -9.42499264	     -1.22095839	      0.00000000	     21.17530566	      4.61617131	      0.61865370	     18.70758633	      0.32650898	     13.99435966	     10.02406073	      0.00000000
     22.66000000	      1.23781311	      1.42163139	      5.46500649	      2.11654177	      1.13043461	      1.04485949	    -18.75275494	     -1.06079234	    -17.56250033	     28.75756103	      0.50191412	     -9.71698662	     -2.70857030	      0.00000000	     20.66568233	      4.79227503	      0.53919400	     17.42489818	      0.30412185	     14.30682002	     10.49122807	      0.00000000
     22.66666667	      1.65824083	      1.70077320	      5.52026068	      2.11691708	      1.12940434	      1.04392525	    -18.96751946	     -1.59996380	    -18.07351445	     30.62896771	      0.53457633	     -9.96479580	     -4.45356614	      0.00000000	     19.71831112	      5.11611120	      0.61101645	     16.18316179	      0.28244946	     13.98767570	      9.99184547	      0.00000000
     22.67333333	      1.89875845	      1.91879205	      5.67641528	      2.11718419	      1.12756369	      1.04288009	    -18.87936571	     -2.12355556	    -18.68309941	     32.74391264	      0.57148909	     -9.95707931	     -6.22426047	      0.00000000	     19.31090492	      5.32137949	      0.20671137	     15.88379628	      0.27722454	     13.91550570	      9.89529499	      0.00000000
     22.68000000	      2.11610980	      2.14515060	      5.79632396	      2.11735390	      1.12544547	      1.04190948	    -18.67469997	     -2.63078703	    -19.02385698	     34.96292049	      0.61021808	     -9.89328714	     -8.28513460	      0.00000000	     18.97624048	      5.50657466	     -0.26683129	     15.93571779	      0.27813074	     13.44100521	      9.35968064	      0.00000000
     22.68666667	      2.54988887	      2.41048719	      6.07751554	      2.11746367	      1.12311038	      1.04078113	    -18.69906028	     -3.13846838	    -19.57220337	     37.23098821	      0.64980333	     -9.66100701	    -10.06405679	      0.00000000	     18.58237132	      5.70531224	     -0.81979433	     16.60588936	      0.28982744	     12.85955596	      8.77719834	      0.00000000
     22.69333333	      2.50791913	      2.60958120	      6.18265485	      2.11735237	      1.11999161	      1.03989274	    -17.96290806	     -3.61841893	    -19.50239661	     39.79617716	      0.69457432	     -9.56009928	    -12.42473864	      0.00000000	     18.75894800	      5.82333957	     -1.43191416	     17.58738982	      0.30695786	     11.98607304	      7.79780313	      0.00000000
